<svg 
 xmlns="http://www.w3.org/2000/svg"
 xmlns:xlink="http://www.w3.org/1999/xlink"
 width="96px" height="95px">
<path fill-rule="evenodd"  fill="rgb(79, 189, 107)"
 d="M48.223,94.604 C22.099,94.604 0.889,73.411 0.889,47.308 C0.889,21.204 22.099,0.011 48.223,0.011 C74.346,0.011 95.555,21.204 95.555,47.308 C95.555,73.411 74.346,94.604 48.223,94.604 ZM48.223,7.765 C26.367,7.765 8.649,25.469 8.649,47.308 C8.649,69.147 26.367,86.851 48.223,86.851 C70.079,86.851 87.796,69.147 87.796,47.308 C87.796,25.469 70.079,7.765 48.223,7.765 ZM45.119,64.236 C44.343,64.883 43.308,65.270 42.403,65.270 C41.497,65.270 40.463,64.883 39.687,64.107 L24.427,48.729 C22.875,47.308 22.875,44.852 24.427,43.302 C25.849,41.751 28.306,41.751 29.858,43.302 L42.532,55.966 L66.716,33.093 C68.268,31.672 70.725,31.672 72.147,33.222 C73.570,34.773 73.570,37.228 71.889,38.779 L45.119,64.236 Z"/>
</svg>